<svg id="visual" viewBox="0 0 900 450" width="900" height="450" xmlns="http://www.w3.org/2000/svg" xmlns:xlink="http://www.w3.org/1999/xlink" version="1.1"><path d="M0 55L37.5 64.8C75 74.7 150 94.3 225 113.2C300 132 375 150 450 148.5C525 147 600 126 675 111C750 96 825 87 862.5 82.5L900 78L900 0L862.5 0C825 0 750 0 675 0C600 0 525 0 450 0C375 0 300 0 225 0C150 0 75 0 37.5 0L0 0Z" fill="#0b3a7d"></path><path d="M0 105L37.5 113.2C75 121.3 150 137.7 225 157.2C300 176.7 375 199.3 450 200.2C525 201 600 180 675 161.2C750 142.3 825 125.7 862.5 117.3L900 109L900 76L862.5 80.5C825 85 750 94 675 109C600 124 525 145 450 146.5C375 148 300 130 225 111.2C150 92.3 75 72.7 37.5 62.8L0 53Z" fill="#062f69"></path><path d="M0 249L37.5 253.5C75 258 150 267 225 271.5C300 276 375 276 450 269.2C525 262.3 600 248.7 675 245.7C750 242.7 825 250.3 862.5 254.2L900 258L900 107L862.5 115.3C825 123.7 750 140.3 675 159.2C600 178 525 199 450 198.2C375 197.3 300 174.7 225 155.2C150 135.7 75 119.3 37.5 111.2L0 103Z" fill="#022556"></path><path d="M0 276L37.5 282.7C75 289.3 150 302.7 225 305.7C300 308.7 375 301.3 450 293.8C525 286.3 600 278.7 675 275.7C750 272.7 825 274.3 862.5 275.2L900 276L900 256L862.5 252.2C825 248.3 750 240.7 675 243.7C600 246.7 525 260.3 450 267.2C375 274 300 274 225 269.5C150 265 75 256 37.5 251.5L0 247Z" fill="#001b44"></path><path d="M0 366L37.5 365.2C75 364.3 150 362.7 225 364.2C300 365.7 375 370.3 450 365.2C525 360 600 345 675 339C750 333 825 336 862.5 337.5L900 339L900 274L862.5 273.2C825 272.3 750 270.7 675 273.7C600 276.7 525 284.3 450 291.8C375 299.3 300 306.7 225 303.7C150 300.7 75 287.3 37.5 280.7L0 274Z" fill="#001a3e"></path><path d="M0 402L37.5 406.5C75 411 150 420 225 423.7C300 427.3 375 425.7 450 419.7C525 413.7 600 403.3 675 403.3C750 403.3 825 413.7 862.5 418.8L900 424L900 337L862.5 335.5C825 334 750 331 675 337C600 343 525 358 450 363.2C375 368.3 300 363.7 225 362.2C150 360.7 75 362.3 37.5 363.2L0 364Z" fill="#001839"></path><path d="M0 451L37.5 451C75 451 150 451 225 451C300 451 375 451 450 451C525 451 600 451 675 451C750 451 825 451 862.5 451L900 451L900 422L862.5 416.8C825 411.7 750 401.3 675 401.3C600 401.3 525 411.7 450 417.7C375 423.7 300 425.3 225 421.7C150 418 75 409 37.5 404.5L0 400Z" fill="#001733"></path></svg>