<svg id="visual" viewBox="0 0 900 675" width="900" height="675" xmlns="http://www.w3.org/2000/svg" xmlns:xlink="http://www.w3.org/1999/xlink" version="1.1"><path d="M0 291L13.7 278.7C27.3 266.3 54.7 241.7 82 226C109.3 210.3 136.7 203.7 163.8 195.8C191 188 218 179 245.2 189.2C272.3 199.3 299.7 228.7 327 223C354.3 217.3 381.7 176.7 409 174.3C436.3 172 463.7 208 491 219.3C518.3 230.7 545.7 217.3 573 198.2C600.3 179 627.7 154 654.8 148.3C682 142.7 709 156.3 736.2 189C763.3 221.7 790.7 273.3 818 266.5C845.3 259.7 872.7 194.3 886.3 161.7L900 129L900 0L886.3 0C872.7 0 845.3 0 818 0C790.7 0 763.3 0 736.2 0C709 0 682 0 654.8 0C627.7 0 600.3 0 573 0C545.7 0 518.3 0 491 0C463.7 0 436.3 0 409 0C381.7 0 354.3 0 327 0C299.7 0 272.3 0 245.2 0C218 0 191 0 163.8 0C136.7 0 109.3 0 82 0C54.7 0 27.3 0 13.7 0L0 0Z" fill="#112749"></path><path d="M0 379L13.7 372.3C27.3 365.7 54.7 352.3 82 343.3C109.3 334.3 136.7 329.7 163.8 315C191 300.3 218 275.7 245.2 285.8C272.3 296 299.7 341 327 347.7C354.3 354.3 381.7 322.7 409 310.3C436.3 298 463.7 305 491 307.3C518.3 309.7 545.7 307.3 573 298.3C600.3 289.3 627.7 273.7 654.8 266.8C682 260 709 262 736.2 290C763.3 318 790.7 372 818 378.8C845.3 385.7 872.7 345.3 886.3 325.2L900 305L900 127L886.3 159.7C872.7 192.3 845.3 257.7 818 264.5C790.7 271.3 763.3 219.7 736.2 187C709 154.3 682 140.7 654.8 146.3C627.7 152 600.3 177 573 196.2C545.7 215.3 518.3 228.7 491 217.3C463.7 206 436.3 170 409 172.3C381.7 174.7 354.3 215.3 327 221C299.7 226.7 272.3 197.3 245.2 187.2C218 177 191 186 163.8 193.8C136.7 201.7 109.3 208.3 82 224C54.7 239.7 27.3 264.3 13.7 276.7L0 289Z" fill="#153257"></path><path d="M0 480L13.7 463.2C27.3 446.3 54.7 412.7 82 397C109.3 381.3 136.7 383.7 163.8 379.2C191 374.7 218 363.3 245.2 379C272.3 394.7 299.7 437.3 327 446.3C354.3 455.3 381.7 430.7 409 420.7C436.3 410.7 463.7 415.3 491 413.2C518.3 411 545.7 402 573 385C600.3 368 627.7 343 654.8 338.5C682 334 709 350 736.2 382.7C763.3 415.3 790.7 464.7 818 468C845.3 471.3 872.7 428.7 886.3 407.3L900 386L900 303L886.3 323.2C872.7 343.3 845.3 383.7 818 376.8C790.7 370 763.3 316 736.2 288C709 260 682 258 654.8 264.8C627.7 271.7 600.3 287.3 573 296.3C545.7 305.3 518.3 307.7 491 305.3C463.7 303 436.3 296 409 308.3C381.7 320.7 354.3 352.3 327 345.7C299.7 339 272.3 294 245.2 283.8C218 273.7 191 298.3 163.8 313C136.7 327.7 109.3 332.3 82 341.3C54.7 350.3 27.3 363.7 13.7 370.3L0 377Z" fill="#193d65"></path><path d="M0 568L13.7 547.8C27.3 527.7 54.7 487.3 82 471.5C109.3 455.7 136.7 464.3 163.8 457.5C191 450.7 218 428.3 245.2 439.7C272.3 451 299.7 496 327 506.2C354.3 516.3 381.7 491.7 409 486C436.3 480.3 463.7 493.7 491 492.5C518.3 491.3 545.7 475.7 573 466.7C600.3 457.7 627.7 455.3 654.8 448.7C682 442 709 431 736.2 451.3C763.3 471.7 790.7 523.3 818 526.7C845.3 530 872.7 485 886.3 462.5L900 440L900 384L886.3 405.3C872.7 426.7 845.3 469.3 818 466C790.7 462.7 763.3 413.3 736.2 380.7C709 348 682 332 654.8 336.5C627.7 341 600.3 366 573 383C545.7 400 518.3 409 491 411.2C463.7 413.3 436.3 408.7 409 418.7C381.7 428.7 354.3 453.3 327 444.3C299.7 435.3 272.3 392.7 245.2 377C218 361.3 191 372.7 163.8 377.2C136.7 381.7 109.3 379.3 82 395C54.7 410.7 27.3 444.3 13.7 461.2L0 478Z" fill="#1c4874"></path><path d="M0 676L13.7 676C27.3 676 54.7 676 82 676C109.3 676 136.7 676 163.8 676C191 676 218 676 245.2 676C272.3 676 299.7 676 327 676C354.3 676 381.7 676 409 676C436.3 676 463.7 676 491 676C518.3 676 545.7 676 573 676C600.3 676 627.7 676 654.8 676C682 676 709 676 736.2 676C763.3 676 790.7 676 818 676C845.3 676 872.7 676 886.3 676L900 676L900 438L886.3 460.5C872.7 483 845.3 528 818 524.7C790.7 521.3 763.3 469.7 736.2 449.3C709 429 682 440 654.8 446.7C627.7 453.3 600.3 455.7 573 464.7C545.7 473.7 518.3 489.3 491 490.5C463.7 491.7 436.3 478.3 409 484C381.7 489.7 354.3 514.3 327 504.2C299.7 494 272.3 449 245.2 437.7C218 426.3 191 448.7 163.8 455.5C136.7 462.3 109.3 453.7 82 469.5C54.7 485.3 27.3 525.7 13.7 545.8L0 566Z" fill="#1d5483"></path></svg>